<?xml version="1.0" standalone="no"?>
<!DOCTYPE svg PUBLIC "-//W3C//DTD SVG 20010904//EN"
 "http://www.w3.org/TR/2001/REC-SVG-20010904/DTD/svg10.dtd">
<svg version="1.0" xmlns="http://www.w3.org/2000/svg"
 width="1024.000000pt" height="1024.000000pt" viewBox="0 0 1024.000000 1024.000000"
 preserveAspectRatio="xMidYMid meet">
<metadata>
Created by potrace 1.14, written by Peter Selinger 2001-2017
</metadata>
<g transform="translate(0.000000,1024.000000) scale(0.100000,-0.100000)"
fill="#000000" stroke="none">
<path d="M0 5120 l0 -5120 5120 0 5120 0 0 5120 0 5120 -5120 0 -5120 0 0
-5120z m6654 3121 c112 -25 289 -88 387 -136 165 -83 382 -262 504 -415 166
-208 289 -473 347 -748 l23 -107 3 -1170 c3 -1297 7 -1211 -64 -1485 -73 -279
-136 -400 -336 -636 -77 -91 -117 -125 -248 -217 -106 -73 -208 -121 -380
-179 -199 -67 -292 -79 -660 -88 -179 -5 -335 -9 -346 -9 -13 -1 -47 -28 -85
-68 -161 -172 -583 -578 -782 -751 -142 -125 -205 -163 -298 -183 -70 -15
-139 1 -201 46 -35 26 -55 52 -85 111 l-38 78 -6 380 c-3 210 -7 381 -8 381
-224 0 -520 8 -590 16 -223 25 -476 119 -656 244 -101 70 -300 273 -377 385
-83 119 -185 319 -221 430 -15 47 -37 144 -49 215 -21 127 -22 157 -25 1245
-3 701 0 1156 6 1226 19 214 114 533 198 664 148 234 329 424 520 546 126 81
326 167 458 197 39 9 93 22 120 28 56 14 1192 26 2210 24 560 -2 583 -2 679
-24z"/>
<path d="M3955 7758 c-355 -26 -711 -276 -860 -603 -50 -110 -53 -127 -11 -72
20 26 35 50 34 55 -5 19 15 72 28 72 8 0 14 7 14 15 0 8 6 14 12 12 7 -1 19
13 27 31 10 23 21 32 38 32 21 0 30 19 24 54 -1 5 5 6 14 3 33 -13 105 33 105
68 0 8 3 14 8 14 21 -4 32 3 32 19 0 25 39 26 60 2 10 -11 23 -20 29 -20 6 0
20 -6 32 -12 17 -11 22 -10 33 5 7 9 22 17 32 18 14 1 12 3 -6 8 l-25 7 29 8
c20 5 32 3 37 -6 7 -11 9 -11 9 0 0 7 5 10 12 6 7 -4 8 -3 4 5 -10 16 14 36
44 36 18 0 26 6 28 23 2 14 10 22 23 22 10 0 19 5 19 11 0 5 5 7 10 4 18 -11
50 6 50 26 0 12 7 19 20 19 11 0 20 -4 20 -10 0 -17 36 -11 55 10 10 11 24 20
32 20 7 0 13 4 13 9 0 6 53 12 118 15 64 2 144 6 177 9 62 4 408 10 483 8 35
-1 42 -4 42 -21 0 -14 7 -20 23 -20 12 0 29 -4 37 -10 8 -5 17 -5 20 0 3 5 67
12 143 16 75 4 137 11 137 15 0 5 18 9 40 9 22 0 40 -4 40 -10 0 -12 117 -14
122 -2 5 15 108 23 108 9 0 -7 4 -6 10 3 5 8 10 10 10 4 0 -8 16 -9 51 -3 33
5 59 4 72 -2 14 -8 22 -8 27 1 10 17 80 15 137 -4 12 -4 41 -2 64 4 33 9 44 9
50 -2 7 -10 9 -10 9 0 0 6 6 12 14 12 9 0 12 -8 8 -27 -5 -25 -3 -26 28 -20
18 4 36 7 41 7 5 0 9 7 9 15 0 8 6 16 13 16 77 8 129 12 165 12 23 1 42 5 42
9 0 5 22 8 49 8 28 0 53 4 56 10 6 10 12 9 130 -11 85 -15 225 -18 217 -5 -3
6 3 6 14 1 10 -4 38 -13 60 -20 46 -15 80 -33 103 -54 8 -8 29 -20 46 -27 67
-28 247 -204 316 -311 23 -34 44 -63 46 -63 3 0 -3 12 -12 28 -170 265 -386
425 -665 492 l-95 23 -1220 1 c-671 1 -1260 -2 -1310 -6z m-395 -288 c0 -5 -4
-10 -10 -10 -5 0 -10 5 -10 10 0 6 5 10 10 10 6 0 10 -4 10 -10z m-374 -217
c-10 -10 -19 5 -10 18 6 11 8 11 12 0 2 -7 1 -15 -2 -18z"/>
<path d="M6690 7490 c8 -5 20 -10 25 -10 6 0 3 5 -5 10 -8 5 -19 10 -25 10 -5
0 -3 -5 5 -10z"/>
<path d="M6835 7419 c96 -51 225 -165 354 -314 23 -27 41 -45 39 -40 -22 54
-40 85 -49 79 -6 -3 -13 3 -16 15 -3 11 -8 19 -12 16 -4 -2 -13 12 -20 31 -7
20 -15 33 -18 31 -5 -6 -23 8 -92 74 -61 58 -105 89 -125 89 -9 0 -16 4 -16 8
0 4 -15 13 -33 20 -51 18 -56 14 -12 -9z"/>
<path d="M7260 7201 c0 -6 4 -13 10 -16 6 -3 7 1 4 9 -7 18 -14 21 -14 7z"/>
<path d="M7281 7165 c0 -5 11 -30 24 -55 13 -25 24 -40 24 -35 0 6 -11 30 -24
55 -13 25 -24 41 -24 35z"/>
<path d="M3206 7104 c-5 -14 -4 -15 9 -4 17 14 19 20 6 20 -5 0 -12 -7 -15
-16z"/>
<path d="M7330 7056 c0 -14 54 -165 58 -161 2 2 -6 34 -18 72 -21 67 -39 106
-40 89z"/>
<path d="M7245 7030 c3 -5 8 -10 11 -10 2 0 4 5 4 10 0 6 -5 10 -11 10 -5 0
-7 -4 -4 -10z"/>
<path d="M3041 7014 c0 -11 3 -14 6 -6 3 7 2 16 -1 19 -3 4 -6 -2 -5 -13z"/>
<path d="M3012 6920 c0 -14 2 -19 5 -12 2 6 2 18 0 25 -3 6 -5 1 -5 -13z"/>
<path d="M3001 6874 c0 -11 3 -14 6 -6 3 7 2 16 -1 19 -3 4 -6 -2 -5 -13z"/>
<path d="M7392 6855 c0 -16 2 -22 5 -12 2 9 2 23 0 30 -3 6 -5 -1 -5 -18z"/>
<path d="M3908 6573 c7 -3 16 -2 19 1 4 3 -2 6 -13 5 -11 0 -14 -3 -6 -6z"/>
<path d="M3968 6573 c12 -2 30 -2 40 0 9 3 -1 5 -23 4 -22 0 -30 -2 -17 -4z"/>
<path d="M2983 6460 c0 -30 2 -43 4 -27 2 15 2 39 0 55 -2 15 -4 2 -4 -28z"/>
<path d="M5662 5620 c0 -14 2 -19 5 -12 2 6 2 18 0 25 -3 6 -5 1 -5 -13z"/>
<path d="M6882 5615 c0 -16 2 -22 5 -12 2 9 2 23 0 30 -3 6 -5 -1 -5 -18z"/>
<path d="M5605 5457 c-31 -53 -115 -136 -169 -166 -85 -49 -156 -64 -265 -58
-132 7 -228 48 -327 139 -37 34 -43 37 -36 17 5 -13 6 -37 1 -52 -10 -35 32
-126 86 -185 71 -79 196 -119 339 -109 83 5 182 36 178 55 -1 8 2 11 7 8 5 -4
12 -2 16 4 4 6 12 7 18 4 7 -4 9 -3 4 1 -4 5 11 19 33 32 55 33 116 157 129
263 4 41 8 76 7 77 -1 1 -11 -12 -21 -30z"/>
<path d="M6015 5420 c5 -8 8 -27 7 -43 -3 -42 74 -183 133 -242 28 -28 68 -59
90 -70 50 -24 178 -32 254 -15 65 14 204 77 196 89 -2 5 4 11 14 14 28 7 88
94 111 161 24 72 24 76 4 76 -8 0 -12 5 -9 10 13 21 -8 8 -70 -45 -117 -99
-207 -130 -357 -123 -88 4 -106 9 -173 42 -46 23 -103 62 -142 99 -37 34 -63
55 -58 47z"/>
<path d="M3580 5417 c0 -3 6 -12 13 -19 7 -7 20 -25 30 -40 17 -27 17 -28 -3
-28 -20 0 -19 -4 16 -70 40 -78 94 -131 170 -170 44 -23 60 -25 157 -23 110 2
182 16 171 35 -3 5 3 16 15 24 12 9 19 20 16 25 -4 5 -1 9 4 9 6 0 11 -4 11
-9 0 -15 57 8 64 25 3 8 12 14 20 14 7 0 17 11 20 25 4 14 13 25 21 25 8 0 19
10 26 21 8 15 8 19 0 15 -7 -5 -11 1 -11 14 0 12 -5 31 -11 42 -8 14 -8 23 0
31 6 6 11 15 11 20 0 5 -24 -13 -52 -39 -174 -157 -451 -147 -628 22 -33 31
-60 54 -60 51z"/>
<path d="M4780 5351 c0 -6 4 -13 10 -16 6 -3 7 1 4 9 -7 18 -14 21 -14 7z"/>
<path d="M2982 5210 c0 -19 2 -27 5 -17 2 9 2 25 0 35 -3 9 -5 1 -5 -18z"/>
<path d="M2985 4775 c1 -217 5 -284 19 -340 10 -38 22 -76 27 -85 8 -11 9 -9
4 10 -4 14 -11 46 -15 72 -5 27 -12 54 -17 60 -4 7 -11 135 -14 283 l-6 270 2
-270z"/>
<path d="M7414 4855 c0 -88 2 -123 3 -77 2 46 2 118 0 160 -1 42 -3 5 -3 -83z"/>
<path d="M7403 4605 c0 -33 2 -45 4 -27 2 18 2 45 0 60 -2 15 -4 0 -4 -33z"/>
<path d="M4261 4494 c0 -11 3 -14 6 -6 3 7 2 16 -1 19 -3 4 -6 -2 -5 -13z"/>
<path d="M3820 4255 c14 -8 32 -14 40 -14 8 0 0 6 -19 14 -42 19 -54 19 -21 0z"/>
<path d="M3888 4233 c6 -2 18 -2 25 0 6 3 1 5 -13 5 -14 0 -19 -2 -12 -5z"/>
<path d="M3097 4189 c4 -13 8 -18 11 -10 2 7 -1 18 -6 23 -8 8 -9 4 -5 -13z"/>
<path d="M3120 4143 c0 -12 95 -149 110 -158 14 -9 13 1 -2 17 -7 7 -26 33
-43 58 -44 67 -65 94 -65 83z"/>
<path d="M7240 4120 c-6 -11 -8 -20 -6 -20 3 0 10 9 16 20 6 11 8 20 6 20 -3
0 -10 -9 -16 -20z"/>
<path d="M7045 3894 c-9 -15 -12 -23 -6 -20 11 7 35 46 28 46 -3 0 -12 -12
-22 -26z"/>
<path d="M6880 3769 c0 -5 5 -7 10 -4 6 3 10 8 10 11 0 2 -4 4 -10 4 -5 0 -10
-5 -10 -11z"/>
<path d="M6836 3734 c-5 -14 -4 -15 9 -4 17 14 19 20 6 20 -5 0 -12 -7 -15
-16z"/>
<path d="M6656 3661 c-4 -5 3 -7 14 -4 23 6 26 13 6 13 -8 0 -17 -4 -20 -9z"/>
<path d="M5818 3593 c12 -2 30 -2 40 0 9 3 -1 5 -23 4 -22 0 -30 -2 -17 -4z"/>
<path d="M4887 3425 c3 -27 7 -161 7 -297 0 -137 4 -248 8 -248 4 0 9 6 9 13
1 6 2 19 3 27 1 9 15 17 39 20 21 3 38 8 37 13 0 4 0 11 0 16 0 5 9 13 20 16
11 4 18 10 15 15 -7 11 5 41 14 36 4 -3 16 11 26 30 11 21 24 33 32 30 18 -7
17 25 -2 50 -8 10 -15 27 -15 37 0 10 -8 17 -20 17 -13 0 -20 7 -20 19 0 18
-65 51 -102 51 -18 0 -29 35 -30 101 0 23 -7 56 -14 73 -14 30 -14 30 -7 -19z"/>
</g>
</svg>
